<?xml version="1.0" standalone="no"?>
<!DOCTYPE svg PUBLIC "-//W3C//DTD SVG 20010904//EN"
 "http://www.w3.org/TR/2001/REC-SVG-20010904/DTD/svg10.dtd">
<svg version="1.0" xmlns="http://www.w3.org/2000/svg"
 width="2048.000000pt" height="2048.000000pt" viewBox="0 0 2048.000000 2048.000000"
 preserveAspectRatio="xMidYMid meet">
<metadata>
Created by potrace 1.14, written by Peter Selinger 2001-2017
</metadata>
<g transform="translate(0.000000,2048.000000) scale(0.100000,-0.100000)"
fill="#000000" stroke="none">
<path d="M5379 20476 c-2 -2 -51 -7 -109 -10 -58 -4 -112 -9 -120 -11 -8 -2
-40 -6 -71 -10 -31 -3 -65 -7 -75 -9 -11 -2 -39 -7 -64 -11 -349 -53 -830
-208 -1125 -362 -339 -177 -623 -371 -896 -613 -126 -111 -386 -375 -489 -496
-337 -396 -588 -830 -750 -1300 -67 -195 -141 -500 -166 -679 -3 -27 -8 -59
-10 -70 -2 -10 -6 -51 -10 -90 -3 -38 -8 -73 -10 -76 -2 -4 -7 -72 -11 -150
-9 -182 -9 -9582 0 -9744 10 -182 14 -228 33 -346 2 -14 6 -42 8 -62 6 -43 26
-156 41 -227 3 -14 8 -41 11 -60 3 -19 8 -38 11 -42 2 -5 6 -17 9 -28 2 -11 6
-30 9 -41 12 -57 88 -306 104 -344 5 -11 14 -36 21 -55 7 -19 16 -44 20 -55
73 -175 101 -236 150 -334 33 -64 75 -143 95 -176 19 -33 38 -67 42 -75 17
-37 159 -246 241 -356 215 -290 563 -647 811 -834 18 -14 38 -30 44 -35 7 -6
28 -22 47 -35 19 -13 37 -27 40 -31 9 -13 225 -156 330 -219 102 -61 287 -157
420 -218 220 -100 580 -214 815 -258 101 -18 119 -22 155 -29 14 -2 45 -7 70
-10 41 -5 76 -10 150 -20 33 -5 192 -17 255 -20 28 -1 2183 -3 4791 -4 l4741
-1 0 -1242 c0 -684 3 -1259 7 -1280 31 -192 198 -363 388 -398 62 -12 3298 -9
3338 2 56 17 133 63 184 109 66 60 107 123 137 209 l23 65 0 6050 c0 5486 -2
6216 -19 6365 -9 72 -26 203 -31 235 -19 116 -23 140 -39 218 -131 624 -411
1200 -837 1717 -151 184 -441 472 -629 626 -484 396 -1016 664 -1604 809 -60
15 -119 28 -130 30 -11 2 -58 10 -105 18 -115 21 -134 24 -275 42 -96 13 -242
23 -342 24 l-63 1 0 1975 0 1975 -4778 0 c-2629 0 -4781 -2 -4783 -4z m9508
-4102 c15 -11 33 -31 39 -42 14 -29 16 -9310 1 -9319 -5 -3 -2099 -6 -4653 -6
-4205 0 -4646 2 -4668 16 -13 9 -28 29 -33 44 -11 34 -11 9248 1 9281 18 52
-284 49 4671 48 l4614 -1 28 -21z"/>
</g>
</svg>
